# xmcd CD database file
#
# Track frame offsets:
#	150
#	42676
#	64178
#	74083
#	90717
#	112809
#	139246
#	163436
#	164892
#	194385
#	203005
#	207481
#
# Disc length: 3103 seconds
#
# Revision: 0
# Processed by: cddbd v1.4PL0 Copyright (c) Steve Scherf et al.
# Submitted via: CDex 1.51
#
DISCID=c60c1d0c
DTITLE=Toni Eberle Band - Geflutet
DYEAR=1999
DGENRE=Jazz
TTITLE0=wasserglitzern
TTITLE1=brandung
TTITLE2=ausflug1
TTITLE3=ausflug2
TTITLE4=fou de toi
TTITLE5=sommer 99
TTITLE6=siddhartha
TTITLE7=chiloschki
TTITLE8=woldtradeblues
TTITLE9=muskatnusskaffee
TTITLE10=unterwasser
TTITLE11=weihnachlied
EXTD=YEAR: 1999
EXTT0=
EXTT1=
EXTT2=
EXTT3=
EXTT4=
EXTT5=
EXTT6=
EXTT7=
EXTT8=
EXTT9=
EXTT10=
EXTT11=
PLAYORDER=
